<?xml version="1.0" encoding="UTF-8"?>
<svg width="10px" height="10px" viewBox="0 0 10 10" version="1.1" xmlns="http://www.w3.org/2000/svg" xmlns:xlink="http://www.w3.org/1999/xlink">
    <!-- Generator: Sketch 52.6 (67491) - http://www.bohemiancoding.com/sketch -->
    <title>close-circle - anticon</title>
    <desc>Created with Sketch.</desc>
    <g id="Page-1" stroke="none" stroke-width="1" fill="none" fill-rule="evenodd">
        <g id="Submitted-cards" transform="translate(-673.000000, -124.000000)" fill="#0156A3">
            <g id="Group-4" transform="translate(601.000000, 117.000000)">
                <path d="M79.5097656,7.67382812 C80.2779986,8.11653867 80.8850889,8.72200137 81.3310547,9.49023438 C81.7770205,10.2584674 82,11.0950476 82,12 C82,12.9049524 81.7770205,13.7415326 81.3310547,14.5097656 C80.8850889,15.2779986 80.2779986,15.8850889 79.5097656,16.3310547 C78.7415326,16.7770205 77.9049524,17 77,17 C76.0950476,17 75.2584674,16.7770205 74.4902344,16.3310547 C73.7220014,15.8850889 73.1149111,15.2779986 72.6689453,14.5097656 C72.2229795,13.7415326 72,12.9049524 72,12 C72,11.0950476 72.2229795,10.2584674 72.6689453,9.49023438 C73.1149111,8.72200137 73.7220014,8.11491108 74.4902344,7.66894531 C75.2584674,7.22297954 76.0950476,7 77,7 C77.9049524,7 78.7415326,7.22460713 79.5097656,7.67382812 Z M79.0019531,13.5136719 L77.4980469,12 L79.0019531,10.4863281 C79.0735681,10.4147132 79.109375,10.3317062 79.109375,10.2373047 C79.109375,10.1429032 79.0751957,10.0615238 79.0068359,9.99316406 C78.9384762,9.92480435 78.8554692,9.890625 78.7578125,9.890625 C78.6601558,9.890625 78.5755212,9.92317676 78.5039062,9.98828125 L77,11.5019531 L75.4960938,9.98828125 C75.4244788,9.92317676 75.3398442,9.890625 75.2421875,9.890625 C75.1445308,9.890625 75.0615238,9.92480435 74.9931641,9.99316406 C74.9248043,10.0615238 74.890625,10.1445308 74.890625,10.2421875 C74.890625,10.3398442 74.9264319,10.4212236 74.9980469,10.4863281 L76.5019531,12 L74.9980469,13.5136719 C74.9264319,13.5787764 74.890625,13.6601558 74.890625,13.7578125 C74.890625,13.8554692 74.9248043,13.9384762 74.9931641,14.0068359 C75.0615238,14.0751957 75.1445308,14.109375 75.2421875,14.109375 C75.3398442,14.109375 75.4244788,14.0768232 75.4960938,14.0117188 L77,12.4980469 L78.5039062,14.0117188 C78.5755212,14.0768232 78.6601558,14.109375 78.7578125,14.109375 C78.8554692,14.109375 78.9384762,14.0751957 79.0068359,14.0068359 C79.0751957,13.9384762 79.109375,13.8554692 79.109375,13.7578125 C79.109375,13.6601558 79.0735681,13.5787764 79.0019531,13.5136719 Z" id="close-circle---anticon"></path>
            </g>
        </g>
    </g>
</svg>