<?xml version="1.0" encoding="UTF-8"?>
<svg width="16px" height="16px" viewBox="0 0 16 16" version="1.1" xmlns="http://www.w3.org/2000/svg" xmlns:xlink="http://www.w3.org/1999/xlink">
    <!-- Generator: Sketch 52.5 (67469) - http://www.bohemiancoding.com/sketch -->
    <title>chart-bar-32</title>
    <desc>Created with Sketch.</desc>
    <g id="Symbols" stroke="none" stroke-width="1" fill="none" fill-rule="evenodd">
        <g id="Icons/Dashboard" transform="translate(-1.000000, -1.000000)" fill="#A5A4BF" fill-rule="nonzero">
            <g id="chart-bar-32">
                <path d="M14,17 C13.7301366,17.0162218 13.4662481,16.9160853 13.2750814,16.7249186 C13.0839147,16.5337519 12.9837782,16.2698634 13,16 L13,7 C12.9837782,6.73013663 13.0839147,6.46624806 13.2750814,6.2750814 C13.4662481,6.08391473 13.7301366,5.9837782 14,6 L16,6 C16.2698634,5.9837782 16.5337519,6.08391473 16.7249186,6.2750814 C16.9160853,6.46624806 17.0162218,6.73013663 17,7 L17,16 C17.0162218,16.2698634 16.9160853,16.5337519 16.7249186,16.7249186 C16.5337519,16.9160853 16.2698634,17.0162218 16,17 L14,17 Z M8,17 C7.73004893,17.016551 7.46596457,16.9165208 7.27472191,16.7252781 C7.08347924,16.5340354 6.98344898,16.2699511 7,16 L7,2 C6.9837782,1.73013663 7.08391473,1.46624806 7.2750814,1.2750814 C7.46624806,1.08391473 7.73013663,0.9837782 8,1 L10,1 C10.2698634,0.9837782 10.5337519,1.08391473 10.7249186,1.2750814 C10.9160853,1.46624806 11.0162218,1.73013663 11,2 L11,16 C11.016551,16.2699511 10.9165208,16.5340354 10.7252781,16.7252781 C10.5340354,16.9165208 10.2699511,17.016551 10,17 L8,17 Z M2,17 C1.73013663,17.0162218 1.46624806,16.9160853 1.2750814,16.7249186 C1.08391473,16.5337519 0.9837782,16.2698634 1,16 L1,12 C0.9837782,11.7301366 1.08391473,11.4662481 1.2750814,11.2750814 C1.46624806,11.0839147 1.73013663,10.9837782 2,11 L4,11 C4.26977579,10.984106 4.53346948,11.0843484 4.72456055,11.2754394 C4.91565162,11.4665305 5.01589396,11.7302242 5,12 L5,16 C5.0162218,16.2698634 4.91608527,16.5337519 4.7249186,16.7249186 C4.53375194,16.9160853 4.26986337,17.0162218 4,17 L2,17 Z" id="Union_8"></path>
            </g>
        </g>
    </g>
</svg>