<?xml version="1.0" encoding="UTF-8"?>
<svg width="20px" height="20px" viewBox="0 0 20 20" version="1.1" xmlns="http://www.w3.org/2000/svg" xmlns:xlink="http://www.w3.org/1999/xlink">
    <!-- Generator: Sketch 52.5 (67469) - http://www.bohemiancoding.com/sketch -->
    <title>Icons/Equipment</title>
    <desc>Created with Sketch.</desc>
    <g id="Symbols" stroke="none" stroke-width="1" fill="none" fill-rule="evenodd">
        <g id="Menu-Item-Mini" transform="translate(-23.000000, -15.000000)" stroke="#A5A4BF" stroke-width="2">
            <g id="Icons/Equipment" transform="translate(22.000000, 14.000000)">
                <path d="M9.95345921,2 L15.4727433,2 C15.6914521,2 15.9014779,2.085585 16.0578954,2.23844812 L19.7478799,5.84458258 C19.9090662,6.0021061 19.999934,6.21796395 19.999934,6.44334069 L19.9999644,13.7457297 C19.9999644,14.2081227 19.6251208,14.5829663 19.1627278,14.5829663 C19.1324262,14.5829663 19.1021471,14.5813213 19.0720239,14.5780385 C17.7454819,14.4334738 16.8001981,14.3488692 16.2361725,14.3242248 C15.8756109,14.3084705 15.9781492,13.788209 15.5,13.5 C14.9361675,13.1601446 13.7844839,13.0454545 13.3022841,13.0454545 C12.8716366,13.0454545 11.9143649,13.2037047 11.5,13.5 C11.0352337,13.8323353 11.1041637,14.3077843 10.4258935,14.3268647 C9.06023455,14.3652821 6.60044943,14.4672403 3.04653817,14.6327394 L3.04653912,14.6327598 C2.49484097,14.6584513 2.02677413,14.2320388 2.00108256,13.6803406 C2.00036095,13.6648449 2,13.6493345 2,13.6338219 L2,9.34090909 C2,8.78862434 2.44771525,8.34090909 3,8.34090909 L9.11625298,8.34090909 L9.11625298,2.83720623 C9.11625298,2.37483 9.49108298,2 9.95345921,2 Z" id="Path-8"></path>
                <ellipse id="Oval" cx="13.3022841" cy="16.3181818" rx="3.76742805" ry="3.68181818"></ellipse>
            </g>
        </g>
    </g>
</svg>