<?xml version="1.0" encoding="UTF-8"?>
<svg width="28px" height="28px" viewBox="0 0 28 28" version="1.1" xmlns="http://www.w3.org/2000/svg" xmlns:xlink="http://www.w3.org/1999/xlink">
    <!-- Generator: Sketch 53.2 (72643) - https://sketchapp.com -->
    <title>Equipment</title>
    <desc>Created with Sketch.</desc>
    <g id="Equipment" stroke="none" stroke-width="1" fill="none" fill-rule="evenodd">
        <path d="M7.52649611,12.92 L1,11.3463837 L3.77293478,7.34 L16.405476,7.34 L19.5008904,5 L25.6329184,5 L25.6329184,8.06 L23.2658368,8.06 L23.2658368,10.76 L25.8150016,10.76 L25.8150016,11.48 L25.8150016,12.92 L26.5433344,12.92 L27.2716672,12.92 L27.2716672,16.16 L28,16.16 L28,17.6 L28,17.96 L26.1653667,17.96 C26.1745129,18.078815 26.179168,18.1988701 26.179168,18.32 C26.179168,20.9046926 24.059611,23 21.4450048,23 C18.8303987,23 16.7108417,20.9046926 16.7108417,18.32 C16.7108417,15.7353074 18.8303987,13.64 21.4450048,13.64 C23.4131505,13.64 25.100785,14.8272705 25.8150016,16.5168322 L25.8150016,16.16 L26.5433344,16.16 L26.5433344,13.64 L25.8150016,13.64 L25.0866688,13.64 L25.0866688,11.48 L19.6241729,11.48 L18.5746577,11.48 L16.7246044,15.137774 L13.3498865,14.3240891 C14.7103646,15.1462384 15.6183425,16.6282975 15.6183425,18.32 C15.6183425,20.9046926 13.4987854,23 10.8841793,23 C8.26957321,23 6.15001616,20.9046926 6.15001616,18.32 C6.15001616,17.0625257 6.65169475,15.9208841 7.46798693,15.08 L7.24251535,15.08 L7.24251535,12.92 L7.52649611,12.92 Z M7.97084815,13.0271386 L7.97084815,14.6308336 C8.69401659,14.0719496 9.58571694,13.716338 10.5580079,13.6509338 L7.97084815,13.0271386 Z M27.2716672,17.24 L27.2716672,16.88 L25.9508361,16.88 C25.989403,16.9980194 26.0233569,17.1180886 26.0524878,17.24 L27.2716672,17.24 Z M22.537504,10.76 L22.537504,8.06 L20.7166721,8.06 L20.7166721,10.76 L22.537504,10.76 Z M19.6241729,10.76 L19.9883393,10.76 L19.9883393,8.52811959 L19.6241729,8.78526244 L19.6241729,10.76 Z M10.8841793,20.66 C9.57687627,20.66 8.51709774,19.6123463 8.51709774,18.32 C8.51709774,17.0276537 9.57687627,15.98 10.8841793,15.98 C12.1914824,15.98 13.2512609,17.0276537 13.2512609,18.32 C13.2512609,19.6123463 12.1914824,20.66 10.8841793,20.66 Z M10.8841793,20.3 C11.9903588,20.3 12.8870945,19.4135238 12.8870945,18.32 C12.8870945,17.2264762 11.9903588,16.34 10.8841793,16.34 C9.77799982,16.34 8.88126414,17.2264762 8.88126414,18.32 C8.88126414,19.4135238 9.77799982,20.3 10.8841793,20.3 Z M21.4450048,20.66 C20.1377018,20.66 19.0779233,19.6123463 19.0779233,18.32 C19.0779233,17.0276537 20.1377018,15.98 21.4450048,15.98 C22.7523079,15.98 23.8120864,17.0276537 23.8120864,18.32 C23.8120864,19.6123463 22.7523079,20.66 21.4450048,20.66 Z M21.4450048,20.3 C22.5511844,20.3 23.44792,19.4135238 23.44792,18.32 C23.44792,17.2264762 22.5511844,16.34 21.4450048,16.34 C20.3388253,16.34 19.4420897,17.2264762 19.4420897,18.32 C19.4420897,19.4135238 20.3388253,20.3 21.4450048,20.3 Z M15.6183425,17.24 L16.7108417,17.24 L16.7108417,17.96 L15.6183425,17.96 L15.6183425,17.24 Z M10.8841793,22.28 C13.0965384,22.28 14.8900097,20.5070476 14.8900097,18.32 C14.8900097,16.1329524 13.0965384,14.36 10.8841793,14.36 C8.6718203,14.36 6.87834896,16.1329524 6.87834896,18.32 C6.87834896,20.5070476 8.6718203,22.28 10.8841793,22.28 Z M21.4450048,22.28 C23.6573639,22.28 25.4508352,20.5070476 25.4508352,18.32 C25.4508352,16.1329524 23.6573639,14.36 21.4450048,14.36 C19.2326458,14.36 17.4391745,16.1329524 17.4391745,18.32 C17.4391745,20.5070476 19.2326458,22.28 21.4450048,22.28 Z M16.3329126,14.302226 L18.1245233,10.76 L18.8958401,10.76 L18.8958401,8.41473756 L20.4178863,7.34 L24.9045856,7.34 L24.9045856,5.72 L19.7474554,5.72 L16.652041,8.06 L4.15710077,8.06 L2.19587239,10.8936163 L16.3329126,14.302226 Z" id="Combined-Shape" fill="#A5A4BF" fill-rule="nonzero"></path>
    </g>
</svg>