<?xml version="1.0" encoding="UTF-8"?>
<svg width="16px" height="17px" viewBox="0 0 16 17" version="1.1" xmlns="http://www.w3.org/2000/svg" xmlns:xlink="http://www.w3.org/1999/xlink">
    <!-- Generator: Sketch 52.5 (67469) - http://www.bohemiancoding.com/sketch -->
    <title>Group</title>
    <desc>Created with Sketch.</desc>
    <g id="Symbols" stroke="none" stroke-width="1" fill="none" fill-rule="evenodd">
        <g id="Icons/Locations" fill="#A5A4BF">
            <g id="Group">
                <path d="M4.75,16.3928571 C2.96875,16.3928571 8.8817842e-16,9.96824021 8.8817842e-16,7.28571429 C8.8817842e-16,4.60318836 2.12664744,2.42857143 4.75,2.42857143 C7.37335256,2.42857143 9.5,4.60318836 9.5,7.28571429 C9.5,9.96824021 6.53125,16.3928571 4.75,16.3928571 Z M4.75,9.71428571 C6.06167628,9.71428571 7.125,8.62697725 7.125,7.28571429 C7.125,5.94445132 6.06167628,4.85714286 4.75,4.85714286 C3.43832372,4.85714286 2.375,5.94445132 2.375,7.28571429 C2.375,8.62697725 3.43832372,9.71428571 4.75,9.71428571 Z" id="Combined-Shape"></path>
                <path d="M11.25,13.9642857 C9.46875,13.9642857 6.5,7.53966878 6.5,4.85714286 C6.5,2.17461693 8.62664744,3.90798505e-14 11.25,3.90798505e-14 C13.8733526,3.90798505e-14 16,2.17461693 16,4.85714286 C16,7.53966878 13.03125,13.9642857 11.25,13.9642857 Z M11.25,7.28571429 C12.5616763,7.28571429 13.625,6.19840582 13.625,4.85714286 C13.625,3.51587989 12.5616763,2.42857143 11.25,2.42857143 C9.93832372,2.42857143 8.875,3.51587989 8.875,4.85714286 C8.875,6.19840582 9.93832372,7.28571429 11.25,7.28571429 Z" id="Combined-Shape-Copy"></path>
            </g>
        </g>
    </g>
</svg>