<?xml version="1.0" encoding="UTF-8"?>
<svg width="28px" height="28px" viewBox="0 0 28 28" version="1.1" xmlns="http://www.w3.org/2000/svg" xmlns:xlink="http://www.w3.org/1999/xlink">
    <!-- Generator: Sketch 53.2 (72643) - https://sketchapp.com -->
    <title>Locations</title>
    <desc>Created with Sketch.</desc>
    <g id="Locations" stroke="none" stroke-width="1" fill="none" fill-rule="evenodd">
        <g id="Group-4" transform="translate(6.000000, 2.000000)" fill-rule="nonzero" stroke="#A5A4BF">
            <path d="M8,23.7187781 C6.03867612,23.7187781 4.18723404,23.4714018 2.78789598,23.01994 C0.781560284,22.3749063 0.360567376,21.5412481 0.360567376,20.9562031 C0.360567376,19.2740442 3.67026005,18.3692654 6.95744681,18.2183658 C7.1503575,18.2091901 7.33132577,18.3058051 7.42080378,18.4657421 L7.8257543,19.1817779 C7.88012932,19.2779241 8.00215089,19.3117863 8.09829711,19.2574113 C8.12995312,19.2395084 8.15612845,19.2133128 8.17400681,19.1816429 L8.57919622,18.4638868 C8.66854958,18.3038377 8.8496024,18.2071775 9.04255319,18.2165105 C12.3264303,18.36741 15.6394326,19.2721889 15.6394326,20.9543478 C15.6394326,21.5393928 15.2184397,22.373051 13.212104,23.0180847 C11.812766,23.4707834 9.96132388,23.7187781 8,23.7187781 Z" id="Path"></path>
            <path d="M8,18.4666417 C7.81589843,18.4667056 7.64691772,18.3714558 7.56113475,18.2192654 L6.54373522,16.4152736 L6.53843972,16.405997 L6.53843972,16.405997 L2.37352246,9.02923538 L2.36160757,9.00573463 C0.849838378,6.46971434 1.48667458,3.28725961 3.87700953,1.43283255 C6.26734449,-0.421594507 9.73265551,-0.421594507 12.1229905,1.43283255 C14.5133254,3.28725961 15.1501616,6.46971434 13.6383924,9.00573463 L13.6264775,9.02923538 L9.46222222,16.405997 L9.45692671,16.4152736 L8.43886525,18.2192654 C8.35308228,18.3714558 8.18410157,18.4667056 8,18.4666417 L8,18.4666417 Z" id="Path"></path>
            <path d="M8.22297524,9.10212497 C7.05448117,9.1023926 6.00088469,8.44741964 5.55352213,7.44264753 C5.10615957,6.43787541 5.35314154,5.28119975 6.17928997,4.51202703 C7.0054384,3.74285432 8.24803863,3.51267751 9.32761393,3.92883774 C10.4071892,4.34499796 11.1111111,5.32553008 11.1111111,6.41317075 C11.1103281,7.89789316 9.8180685,9.10162357 8.22297524,9.10344828 L8.22297524,9.10212497 Z" id="Path"></path>
        </g>
    </g>
</svg>