<?xml version="1.0" encoding="UTF-8"?>
<svg width="28px" height="28px" viewBox="0 0 28 28" version="1.1" xmlns="http://www.w3.org/2000/svg" xmlns:xlink="http://www.w3.org/1999/xlink">
    <!-- Generator: Sketch 53.2 (72643) - https://sketchapp.com -->
    <title>Miners</title>
    <desc>Created with Sketch.</desc>
    <g id="Miners" stroke="none" stroke-width="1" fill="none" fill-rule="evenodd">
        <g id="Group-7" transform="translate(2.000000, 3.000000)" stroke="#A6A3C1">
            <g id="Group-6">
                <path d="" id="Path-4" stroke-width="0.5"></path>
                <path d="M13.4119678,7.97789617 L13.4119678,8.99106571 C13.582064,9.4164615 13.6474063,9.76354918 13.6079947,10.0323288 C13.5685831,10.3011083 13.4019756,10.593488 13.1081721,10.9094679 C12.9491048,11.5258211 12.7863596,11.9796767 12.6199365,12.2710344 C12.4535135,12.5623921 12.1490211,12.9749965 11.7064593,13.5088474 L11.7064593,15.8456716 C12.6551188,16.6030972 13.3747687,17.110085 13.8654091,17.366635 C15.1087905,18.0167842 16.2529866,18.3040363 16.9472111,18.8931688 C18.052349,19.8310103 18.5181434,20.7546338 18.3445945,21.6640394 L9.16945974,21.6640394" id="Path-5" stroke-width="0.734693878"></path>
                <path d="M19.3452331,7.08888889 L19.3452331,7.71520066 C19.5080504,8.11264781 19.5705966,8.43693171 19.5328715,8.68805236 C19.4951464,8.93917302 19.3356684,9.21234328 19.0544376,9.50756313 C18.9021772,10.0834218 18.7463963,10.5074588 18.5870949,10.7796743 C18.4277936,11.0518897 18.1363312,11.4373858 17.7127079,11.9361626 L17.7127079,14.1194566 C18.3314134,14.8096135 18.8755885,15.2745392 19.3452331,15.5142338 C20.5354069,16.121668 21.6306398,16.3900475 22.2951566,16.9404737 C23.3530026,17.8166987 23.839699,18.6103596 23.7552456,19.3214565 L17.3119961,19.3214565" id="Path-5" stroke-width="0.734693878"></path>
                <path d="M4.43876335,7.97789617 L4.43876335,8.99106571 C4.60885956,9.4164615 4.67420186,9.76354918 4.63479025,10.0323288 C4.59537863,10.3011083 4.4287711,10.593488 4.13496766,10.9094679 C3.97590031,11.5258211 3.81315511,11.9796767 3.64673206,12.2710344 C3.48030901,12.5623921 3.17581662,12.9749965 2.73325487,13.5088474 L2.73325487,15.8456716 C3.6819143,16.6030972 4.40156423,17.110085 4.89220466,17.366635 C6.13558607,18.0167842 7.27978213,18.3040363 7.97400667,18.8931688 C9.07914449,19.8310103 9.54493892,20.7546338 9.37138998,21.6640394 L0.196255264,21.6640394" id="Path-5" stroke-width="0.734693878" transform="translate(4.801489, 14.820968) scale(-1, 1) translate(-4.801489, -14.820968) "></path>
                <path d="M9.40672221,7.94902107 C10.8606787,7.9875212 11.9379532,7.9875212 12.6385456,7.94902107 C13.3391381,7.91052095 14.0034535,7.84386576 14.631492,7.74905551 L14.631492,6.60377388 C14.4823662,6.41389177 14.3598861,6.28606897 14.2640515,6.22030547 C14.1682169,6.15454198 14.0050974,6.03126092 13.7746932,5.85046229 C13.7201208,4.92009396 13.4363137,4.04406223 12.9232718,3.22236709 C12.41023,2.40067195 11.5524422,1.98982438 10.3499085,1.98982438" id="Path-6" stroke-width="0.734693878"></path>
                <path d="M14.8697682,7.06177796 C16.6638317,7.09792587 17.9111597,7.09792587 18.6117521,7.06177796 C19.3123446,7.02563005 19.97666,6.96304726 20.6046985,6.87402957 L20.6046985,5.79872051 C20.4555728,5.62043951 20.3330926,5.50042622 20.237258,5.43868064 C20.1414234,5.37693506 19.978304,5.26118603 19.7478997,5.09143354 C19.6933273,4.21790736 19.4095202,3.395398 18.8964783,2.62390547 C18.3834365,1.85241293 17.6432225,1.43545945 16.6758362,1.37304503" id="Path-6" stroke-width="0.734693878"></path>
                <path d="M3.86972465,7.94902107 C5.61940346,7.9875212 6.84453909,7.9875212 7.54513154,7.94902107 C8.24572398,7.91052095 8.91003943,7.84386576 9.53807788,7.74905551 L9.53807788,6.60377388 C9.38895215,6.41389177 9.26647199,6.28606897 9.17063739,6.22030547 C9.07480279,6.15454198 8.91168337,6.03126092 8.68127913,5.85046229 C8.6006841,4.78580576 8.31687697,3.90977403 7.82985773,3.22236709 C7.34283849,2.53496015 6.52319039,2.12411258 5.37091343,1.98982438" id="Path-6" stroke-width="0.734693878" transform="translate(6.703901, 4.983860) scale(-1, 1) translate(-6.703901, -4.983860) "></path>
                <path d="M8.27886626,4.87088095 L8.27886626,1.1542992 C8.27886626,0.748538971 8.60779992,0.419605318 9.01356014,0.419605318 L9.61521457,0.419605318 C10.0209748,0.419605318 10.3499085,0.748538971 10.3499085,1.1542992 L10.3499085,4.98386027" id="Path-7" stroke-width="0.734693878"></path>
                <path d="M14.6452349,4.45127564 L14.6452349,0.734693878 C14.6452349,0.328933653 14.9741685,5.5141599e-14 15.3799287,5.5067062e-14 L15.9815832,5.51780843e-14 C16.3873434,5.51035474e-14 16.716277,0.328933653 16.716277,0.734693878 L16.716277,4.56425495" id="Path-7" stroke-width="0.734693878"></path>
                <path d="M14.4164116,1.37304503 C13.9907326,1.49019982 13.6345028,1.63636883 13.3477222,1.81155206 C13.0609415,1.9867353 12.7587519,2.24096553 12.4411532,2.57424276" id="Path-30" stroke-width="0.734693878"></path>
            </g>
        </g>
    </g>
</svg>