<?xml version="1.0" encoding="UTF-8"?>
<svg width="28px" height="24px" viewBox="0 0 28 24" version="1.1" xmlns="http://www.w3.org/2000/svg" xmlns:xlink="http://www.w3.org/1999/xlink">
    <!-- Generator: Sketch 52.5 (67469) - http://www.bohemiancoding.com/sketch -->
    <title>gh icon new -01</title>
    <desc>Created with Sketch.</desc>
    <g id="Symbols" stroke="none" stroke-width="1" fill="none" fill-rule="evenodd">
        <g id="Organisms/Side-Menu-Mini" transform="translate(-19.000000, -31.000000)">
            <g id="gh-icon-new--01" transform="translate(19.000000, 31.000000)">
                <polygon id="Path" fill="#F16465" points="17.5573494 17.9177143 18.4901205 11.7531429 20.7166265 11.7531429 19.6404819 17.9177143 24.7395181 17.9177143 27.9004819 0.0497142857 22.513012 0.0497142857 21.4351807 7.04057143 19.4245783 7.04057143 20.5024096 0.0497142857 15.4016867 0.0497142857 12.6 17.9177143"></polygon>
                <path d="M8.99710843,5.20971429 C8.99710843,5.54057143 8.98361446,5.87142857 8.97855422,6.20228571 L8.12168675,5.41028571 C7.68515429,5.14877921 7.19626517,4.99057737 6.6913253,4.94742857 L6.54795181,4.94742857 C5.731015,4.92505557 4.93627048,5.21921761 4.32481928,5.77028571 C3.7971196,6.23342173 3.32189269,6.75493131 2.90795181,7.32514286 C0.725301205,10.3371429 0.971566265,13.8034286 1.10819277,14.9708571 C1.24917101,16.4554629 2.26952718,17.701241 3.68048193,18.1114286 C5.40939759,18.5742857 6.77060241,17.4 6.8853012,17.2988571 C6.84819277,17.4702857 6.56987952,18.6068571 5.5139759,19.1297143 C4.51204819,19.6268571 3.22506024,19.3645714 2.35638554,18.444 L0.0995180723,22.2445714 C2.44746988,24.0891429 5.48024096,24.4731429 7.84168675,23.2165714 C8.3894064,22.9274272 8.89097567,22.5558008 9.32939759,22.1142857 C10.2754578,21.1454263 10.9110757,19.9084141 11.1527711,18.5657143 L13.6626506,5.29885714 L8.99710843,5.20971429 Z M7.9546988,11.904 C7.76240964,13.2908571 7.13662651,14.3468571 6.55975904,14.2645714 C5.98289157,14.1822857 5.66915663,12.9908571 5.86144578,11.604 C6.05373494,10.2171429 6.67951807,9.16114286 7.25301205,9.24342857 C7.82650602,9.32571429 8.1486747,10.5188571 7.9546988,11.904 Z" id="Shape" fill="#7C7878" fill-rule="nonzero"></path>
            </g>
        </g>
    </g>
</svg>