<?xml version="1.0" encoding="UTF-8"?>
<svg width="135px" height="36px" viewBox="0 0 135 36" version="1.1" xmlns="http://www.w3.org/2000/svg" xmlns:xlink="http://www.w3.org/1999/xlink">
    <!-- Generator: Sketch 53.2 (72643) - https://sketchapp.com -->
    <title>Group</title>
    <desc>Created with Sketch.</desc>
    <g id="Symbols" stroke="none" stroke-width="1" fill="none" fill-rule="evenodd">
        <g id="Organisms/Side-Menu" transform="translate(-60.000000, -808.000000)">
            <g id="Group" transform="translate(60.000000, 805.000000)">
                <text id="App-Version-Copy" font-family="OpenSans, Open Sans" font-size="12" font-weight="normal" fill="#7F7987">
                    <tspan x="34" y="13">Powered by</tspan>
                </text>
                <g id="Group-4" transform="translate(0.000000, 17.000000)" fill="#C1C1C1">
                    <path d="M11.3211611,0.254028343 C5.24971676,0.254028343 0.320474777,5.04003415 0.320474777,10.9431957 C0.320474777,16.8463573 5.24971676,21.6331406 11.3211611,21.6331406 C17.3931056,21.6331406 22.3224476,16.8463573 22.3224476,10.9431957 C22.3224476,5.04003415 17.3931056,0.254028343 11.3211611,0.254028343 Z M6.77075314,7.05571997 L8.6462213,5.44635871 L9.5964065,6.37197709 C9.5964065,6.37197709 8.32019207,7.64840726 8.17987949,8.5007536 L6.77075314,7.05571997 Z M15.7188555,6.79567222 C15.7188555,6.79567222 12.0254243,5.23684341 11.3214612,9.79205198 L11.3214612,15.5836535 L8.32019207,15.5836535 L8.32019207,9.90652741 C8.32019207,9.90652741 8.91804567,4.366422 15.9061723,5.90212251 L15.7188555,6.79567222 Z" id="Shape"></path>
                    <path d="M25.6328361,5.86696281 L27.5766802,5.68880354 L27.5766802,7.73245505 L27.6130137,7.73245505 C27.6735699,7.48303083 27.7916527,7.23954893 27.9672656,7.00200205 C28.1428786,6.76445517 28.3548221,6.5476969 28.6031025,6.35172072 C28.8513829,6.15574455 29.1269094,5.9983721 29.4296903,5.87959866 C29.7324713,5.76082522 30.0413032,5.70143939 30.3561954,5.70143939 C30.5984202,5.70143939 30.7649472,5.70737797 30.8557815,5.71925532 C30.9466158,5.73113266 31.0404765,5.74300983 31.1373664,5.75488717 L31.1373664,8.11008543 C30.9920315,8.08633074 30.8436711,8.0655457 30.6922806,8.04772969 C30.5408901,8.02991367 30.3925297,8.0210058 30.2471948,8.0210058 C29.8959689,8.0210058 29.5659426,8.0892995 29.2571061,8.22588896 C28.9482695,8.36247841 28.6787985,8.56439023 28.448685,8.83163047 C28.2185714,9.09887071 28.0369056,9.42846206 27.903682,9.82041441 C27.7704583,10.2123668 27.7038475,10.6636991 27.7038475,11.1744249 L27.7038475,15.7353021 L25.6328361,15.7353021 L25.6328361,5.86696281 Z M40.1559719,13.3875212 C40.1559719,13.6500545 40.1906611,13.8375755 40.2600405,13.9500897 C40.3294199,14.062604 40.465023,14.1188603 40.666854,14.1188603 L40.8939128,14.1188603 C40.9822139,14.1188603 41.0831278,14.1063589 41.1966578,14.0813557 L41.1966578,15.4851031 C41.1209711,15.5101062 41.0232107,15.5382344 40.9033736,15.5694883 C40.7835364,15.6007423 40.6605475,15.6288704 40.5344031,15.6538736 C40.4082587,15.6788768 40.2821163,15.6976289 40.1559719,15.7101305 C40.0298275,15.7226321 39.9226064,15.7288828 39.8343053,15.7288828 C39.3928,15.7288828 39.0269868,15.641373 38.7368548,15.4663508 C38.4467227,15.2913286 38.257509,14.9850443 38.1692079,14.5474889 C37.740317,14.9600412 37.2136722,15.2600747 36.5892575,15.4475985 C35.9648428,15.6351223 35.3625125,15.7288828 34.7822484,15.7288828 C34.340743,15.7288828 33.9181657,15.6695011 33.5145037,15.5507361 C33.1108417,15.431971 32.7544892,15.2569514 32.4454355,15.0256721 C32.1363818,14.7943928 31.8904039,14.578293 31.7074946,14.2219978 C31.5245852,13.8657027 31.4331319,13.4500312 31.4331319,12.974971 C31.4331319,12.3748949 31.5435066,11.8873404 31.7642593,11.5122928 C31.9850119,11.1372453 32.2751396,10.8434624 32.6346511,10.6309355 C32.9941626,10.4184085 33.3978185,10.2652664 33.8456311,10.1715045 C34.2934436,10.0777426 34.744403,10.0058596 35.1985227,9.95585324 C35.5895703,9.88084373 35.9616906,9.82771279 36.3148949,9.79645883 C36.6680991,9.76520486 36.9803018,9.71207392 37.2515122,9.63706441 C37.5227226,9.5620549 37.7371648,9.44641698 37.8948453,9.29014716 C38.0525257,9.13387735 38.1313648,8.99767719 38.1313648,8.68513756 C38.1313648,8.41010269 38.06514,8.18507753 37.9326884,8.01005534 C37.8002368,7.83503315 37.6362516,7.70064312 37.4407278,7.60688123 C37.245204,7.51311935 37.0276082,7.45061236 36.7879339,7.4193584 C36.5482596,7.38810443 36.3212031,7.37247769 36.1067577,7.37247769 C35.5012647,7.37247769 35.0030019,7.49749166 34.6119543,7.74752336 C34.2209067,7.99755507 34.0001574,8.38509839 33.9496996,8.91016497 L31.7926416,8.91016497 C31.8304849,8.28508571 31.9818559,7.76627771 32.2467591,7.3537254 C32.5116623,6.94117309 32.8490934,6.60988606 33.2590626,6.35985435 C33.6690319,6.10982265 34.1326055,5.93480308 34.6497974,5.8347904 C35.1669894,5.73477772 35.6967878,5.68477213 36.2392086,5.68477213 C36.7185572,5.68477213 37.1915915,5.73477772 37.6583257,5.8347904 C38.1250599,5.93480308 38.5444837,6.09732125 38.9166096,6.32234978 C39.2887355,6.54737832 39.5883239,6.83803581 39.8153838,7.19433099 C40.0424436,7.55062616 40.1559719,7.98504973 40.1559719,8.49761472 L40.1559719,13.3875212 Z M37.9317371,10.8359222 C37.6168449,11.0378371 37.2292911,11.159578 36.769064,11.2011487 C36.308837,11.2427194 35.8486168,11.3050746 35.3883898,11.388216 C35.1703875,11.423848 34.958444,11.474326 34.7525529,11.5396514 C34.5466619,11.6049767 34.364996,11.6940555 34.2075499,11.8068903 C34.0501038,11.919725 33.9259655,12.0681896 33.8351312,12.2522884 C33.7442969,12.4363873 33.6988805,12.6590841 33.6988805,12.9203857 C33.6988805,13.1460552 33.7654913,13.3360899 33.8987149,13.4904953 C34.0319385,13.6449008 34.19241,13.7666418 34.3801342,13.8557218 C34.5678584,13.9448019 34.7737464,14.007157 34.9978043,14.0427891 C35.2218622,14.0784211 35.4247224,14.0962369 35.606391,14.0962369 C35.8365045,14.0962369 36.0847811,14.0665439 36.3512284,14.0071572 C36.6176756,13.9477705 36.8689801,13.8468146 37.1051492,13.7042865 C37.3413183,13.5617583 37.538123,13.3806316 37.6955691,13.1609007 C37.8530152,12.9411698 37.9317371,12.6709643 37.9317371,12.350276 L37.9317371,10.8359222 Z M42.2554275,5.6912493 L44.2174383,5.6912493 L44.2174383,7.2437818 L44.2537718,7.2437818 C44.5444415,6.68930314 44.9501619,6.29193272 45.4709452,6.05165863 C45.9917284,5.81138454 46.5548926,5.6912493 47.1604545,5.6912493 C47.89924,5.6912493 48.5441538,5.82370611 49.0952151,6.08862369 C49.6462764,6.35354128 50.1034688,6.7170274 50.466806,7.17909295 C50.8301431,7.64115851 51.1026419,8.1802269 51.2843105,8.79631431 C51.465979,9.41240171 51.556812,10.0716054 51.556812,10.773945 C51.556812,11.4146759 51.4750623,12.0369148 51.3115606,12.6406805 C51.1480589,13.2444462 50.8997822,13.7773538 50.5667232,14.2394193 C50.2336641,14.7014849 49.8128049,15.0711318 49.3041329,15.3483711 C48.7954609,15.6256105 48.1959636,15.764228 47.505623,15.764228 C47.2028421,15.764228 46.9000657,15.7365045 46.5972847,15.6810567 C46.2945037,15.6256088 46.0038384,15.5362775 45.7252799,15.41306 C45.4467214,15.2898425 45.1893615,15.1327426 44.9531923,14.9417555 C44.7170232,14.7507684 44.5202185,14.5258998 44.3627724,14.2671431 L44.3264389,14.2671431 L44.3264389,19.0356358 L42.2554275,19.0356358 L42.2554275,5.6912493 Z M49.4858006,10.7369799 C49.4858006,10.3057188 49.4313008,9.8867856 49.3222997,9.48016791 C49.2132985,9.07355022 49.0497993,8.71314449 48.831797,8.39893992 C48.6137947,8.08473534 48.3412959,7.83214329 48.0142925,7.6411562 C47.6872891,7.4501691 47.3118463,7.35467698 46.887953,7.35467698 C46.0159438,7.35467698 45.358919,7.66271607 44.9168588,8.27880347 C44.4747986,8.89489088 44.2537718,9.71427484 44.2537718,10.7369799 C44.2537718,11.2175281 44.3112993,11.6641848 44.4263561,12.0769633 C44.5414129,12.4897419 44.7139954,12.8439869 44.944109,13.1397088 C45.1742225,13.4354308 45.449749,13.6695405 45.7706968,13.8420449 C46.0916446,14.0145494 46.4640596,14.1008004 46.887953,14.1008004 C47.3602913,14.1008004 47.7599561,14.0022279 48.0869596,13.8050799 C48.413963,13.6079319 48.683434,13.3522595 48.8953807,13.0380549 C49.1073273,12.7238503 49.2587155,12.366525 49.3495498,11.9660682 C49.4403841,11.5656114 49.4858006,11.1559194 49.4858006,10.7369799 Z M53.3916554,2.83657108 L55.4626668,2.83657108 L55.4626668,4.76069118 L53.3916554,4.76069118 L53.3916554,2.83657108 Z M53.3916554,5.6726423 L55.4626668,5.6726423 L55.4626668,15.7550485 L53.3916554,15.7550485 L53.3916554,5.6726423 Z M66.5988946,15.7300252 L64.6368839,15.7300252 L64.6368839,14.2477206 L64.6005503,14.2477206 C64.3219918,14.8044539 63.9162715,15.20344 63.383377,15.4446911 C62.8504825,15.6859421 62.2873184,15.8065658 61.6938677,15.8065658 C60.9550821,15.8065658 60.3101684,15.6735705 59.759107,15.4075757 C59.2080457,15.1415809 58.7508533,14.7797098 58.3875162,14.3219514 C58.024179,13.864193 57.7516803,13.3229327 57.5700117,12.6981543 C57.3883431,12.0733759 57.2975102,11.4022132 57.2975102,10.6846459 C57.2975102,9.81861649 57.4125652,9.07013084 57.6426787,8.43916654 C57.8727923,7.80820224 58.1785965,7.28859237 58.5601005,6.88032135 C58.9416045,6.47205033 59.3776025,6.17203749 59.8681076,5.98027383 C60.3586128,5.78851017 60.8581939,5.69262978 61.3668659,5.69262978 C61.6575356,5.69262978 61.9542565,5.72046602 62.2570374,5.77613934 C62.5598184,5.83181266 62.8504838,5.92150722 63.1290422,6.04522571 C63.4076007,6.1689442 63.6649607,6.32668291 63.9011298,6.51844657 C64.137299,6.71021024 64.3341036,6.93599309 64.4915497,7.19580192 L64.5278833,7.19580192 L64.5278833,2.29657418 L66.5988946,2.29657418 L66.5988946,15.7300252 Z M59.3685216,10.851665 C59.3685216,11.2599361 59.4199936,11.6620151 59.5229391,12.0579143 C59.6258846,12.4538135 59.7833283,12.8064059 59.995275,13.1157021 C60.2072217,13.4249983 60.4766927,13.6724316 60.8036961,13.8580093 C61.1306996,14.0435871 61.5182534,14.1363746 61.9663692,14.1363746 C62.4265962,14.1363746 62.8232333,14.0374012 63.1562924,13.8394517 C63.4893514,13.6415021 63.7618502,13.3816971 63.9737969,13.0600291 C64.1857435,12.738361 64.3431873,12.3764898 64.4461328,11.9744047 C64.5490783,11.5723196 64.6005503,11.1609618 64.6005503,10.740319 C64.6005503,9.67633994 64.3674125,8.84743849 63.9011298,8.25358973 C63.4348471,7.65974098 62.8020444,7.36282105 62.0027027,7.36282105 C61.5182532,7.36282105 61.109505,7.46488728 60.776446,7.66902279 C60.4433869,7.8731583 60.1708881,8.13914906 59.9589415,8.46700306 C59.7469948,8.79485706 59.5956066,9.16600697 59.5047723,9.58046391 C59.413938,9.99492086 59.3685216,10.4186503 59.3685216,10.851665 Z M71.4069584,8.35269704 L75.1129788,8.35269704 C75.6579845,8.35269704 76.1121491,8.20126317 76.4754862,7.8983909 C76.8388234,7.59551863 77.0204892,7.15903279 77.0204892,6.58892028 C77.0204892,5.9475437 76.85699,5.4962114 76.5299865,5.23490984 C76.2029831,4.97360827 75.7306519,4.84295945 75.1129788,4.84295945 L71.4069584,4.84295945 L71.4069584,8.35269704 Z M69.1361126,3.02573491 L75.4399806,3.02573491 C76.6026594,3.02573491 77.5352108,3.28703255 78.2376626,3.80963569 C78.9401144,4.33223882 79.2913351,5.12207035 79.2913351,6.17915396 C79.2913351,6.82053053 79.1308636,7.36984945 78.8099157,7.82712719 C78.4889679,8.28440494 78.0317755,8.63775062 77.4383249,8.88717484 C78.2376666,9.08908951 78.8432194,9.46025094 79.2550015,10.0363021 C79.6667836,10.6123533 79.8726716,11.3338911 79.8726716,12.2009372 C79.8726716,12.6997857 79.7818387,13.1659644 79.6001701,13.5994875 C79.4185015,14.0330106 79.1338917,14.4071413 78.7463321,14.7218909 C78.3587724,15.0366405 77.8622191,15.286061 77.2566572,15.4701598 C76.6510953,15.6542586 75.9304874,15.7463067 75.094812,15.7463067 L69.1361126,15.7463067 L69.1361126,3.02573491 Z M71.4069584,13.9290821 L75.4218138,13.9290821 C76.1121544,13.9290821 76.6480686,13.7538939 77.0295726,13.4035123 C77.4110766,13.0531307 77.6018258,12.557259 77.6018258,11.9158824 C77.6018258,11.2863832 77.4110766,10.8023887 77.0295726,10.4638844 C76.6480686,10.1253801 76.1121544,9.95613045 75.4218138,9.95613045 L71.4069584,9.95613045 L71.4069584,13.9290821 Z M81.7681447,2.83657108 L83.8391561,2.83657108 L83.8391561,4.76069118 L81.7681447,4.76069118 L81.7681447,2.83657108 Z M85.3427708,5.69610886 L93.3761379,5.69610886 L93.3761379,7.35764546 L87.7145268,13.8665603 L93.6630439,13.8665603 L93.6630439,15.7593645 L84.9602295,15.7593645 L84.9602295,14.0541371 L90.43057,7.54522225 L85.3427708,7.54522225 L85.3427708,5.69610886 Z M81.7681447,5.68477213 L83.8391561,5.68477213 L83.8391561,15.7353021 L81.7681447,15.7353021 L81.7681447,5.68477213 Z M97.7396611,10.7814891 L102.844522,10.7814891 L100.337509,4.2608599 L97.7396611,10.7814891 Z M99.7487753,3.08228847 L101.12945,3.08228847 L106.205437,15.7537057 L104.879263,15.7537057 L103.309462,11.8477245 L97.4052624,11.8477245 L95.8322134,15.7537057 L94.5242062,15.7537057 L99.7487753,3.08228847 Z M107.129875,5.69534956 L108.183548,5.69534956 L108.183548,7.71722829 L108.219881,7.71722829 C108.486329,7.07585171 108.919299,6.57998004 109.518805,6.2295984 C110.118311,5.87921675 110.799558,5.70402855 111.562566,5.70402855 C112.277129,5.70402855 112.897821,5.83467738 113.42466,6.09597894 C113.951499,6.35728051 114.390525,6.71062619 114.741751,7.15602659 C115.092976,7.60142699 115.353364,8.1180837 115.522921,8.70601223 C115.692479,9.29394075 115.777256,9.91452267 115.777256,10.5677766 C115.777256,11.2210305 115.692479,11.8416124 115.522921,12.4295409 C115.353364,13.0174695 115.092976,13.5978038 114.741751,14.0432042 C114.390525,14.4886046 113.951499,14.838981 113.42466,15.0943439 C112.897821,15.3497068 112.277129,15.4773863 111.562566,15.4773863 C111.223452,15.4773863 110.884342,15.4358162 110.545227,15.3526748 C110.206113,15.2695334 109.891225,15.1448231 109.600556,14.9785403 C109.309886,14.8122575 109.052526,14.6044071 108.828468,14.3549829 C108.60441,14.1055587 108.431828,13.7508905 108.310715,13.4183249 L108.274382,13.4183249 L108.274382,18.5493118 L107.129875,18.5493118 L107.129875,5.69534956 Z M114.63275,10.5677766 C114.63275,10.0926828 114.575222,9.62056549 114.460166,9.1514104 C114.345109,8.68225531 114.163443,8.26358522 113.915163,7.89538756 C113.666882,7.52718989 113.348967,7.22729146 112.961407,6.99568325 C112.573848,6.76407504 112.107572,6.64827268 111.562566,6.64827268 C110.932782,6.64827268 110.405951,6.75516717 109.982058,6.96895936 C109.558164,7.18275155 109.219055,7.46780353 108.964719,7.82412385 C108.710383,8.18044417 108.531745,8.59614497 108.428799,9.07123873 C108.325854,9.54633249 108.274382,10.0451735 108.274382,10.5677766 C108.274382,11.0428703 108.331909,11.5149877 108.446966,11.9841428 C108.562023,12.4532979 108.749744,12.871968 109.010136,13.2401656 C109.270527,13.6083633 109.609637,13.9082617 110.027475,14.1398699 C110.445312,14.3714781 110.957004,14.4872805 111.562566,14.4872805 C112.107572,14.4872805 112.573848,14.3714781 112.961407,14.1398699 C113.348967,13.9082617 113.666882,13.6083633 113.915163,13.2401656 C114.163443,12.871968 114.345109,12.4532979 114.460166,11.9841428 C114.575222,11.5149877 114.63275,11.0428703 114.63275,10.5677766 Z M117.216769,5.70717076 L118.270441,5.70717076 L118.270441,7.72037049 L118.306775,7.72037049 C118.573222,7.07899392 119.006192,6.58312225 119.605698,6.2327406 C120.205205,5.88235895 120.886452,5.70717076 121.64946,5.70717076 C122.364023,5.70717076 122.984714,5.83781958 123.511553,6.09912115 C124.038392,6.36042272 124.477418,6.7137684 124.828644,7.1591688 C125.17987,7.6045692 125.440257,8.12122591 125.609815,8.70915443 C125.779372,9.29708296 125.86415,9.91766487 125.86415,10.5709188 C125.86415,11.2241727 125.779372,11.8447546 125.609815,12.4326831 C125.440257,13.0206117 125.17987,13.5372684 124.828644,13.9826688 C124.477418,14.4280692 124.038392,14.7784456 123.511553,15.0338085 C122.984714,15.2891714 122.364023,15.4168509 121.64946,15.4168509 C121.310345,15.4168509 120.971235,15.3752808 120.632121,15.2921394 C120.293006,15.208998 119.978119,15.0842878 119.687449,14.9180049 C119.396779,14.7517221 119.139419,14.5438717 118.915361,14.2944475 C118.691303,14.0450233 118.518721,13.7540327 118.397608,13.4214671 L118.361275,13.4214671 L118.361275,18.552454 L117.216769,18.552454 L117.216769,5.70717076 Z M124.719643,10.5709188 C124.719643,10.095825 124.662116,9.62370769 124.547059,9.15455261 C124.432002,8.68539752 124.250336,8.26672743 124.002056,7.89852976 C123.753776,7.5303321 123.43586,7.23043366 123.048301,6.99882546 C122.660741,6.76721725 122.194465,6.65141488 121.64946,6.65141488 C121.019675,6.65141488 120.492844,6.75830937 120.068951,6.97210157 C119.645058,7.18589376 119.305948,7.47094574 119.051612,7.82726605 C118.797276,8.18358637 118.618638,8.59928718 118.515692,9.07438093 C118.412747,9.54947469 118.361275,10.0483157 118.361275,10.5709188 C118.361275,11.0460125 118.418802,11.5181299 118.533859,11.987285 C118.648916,12.4564401 118.836637,12.8751102 119.097029,13.2433078 C119.357421,13.6115055 119.69653,13.9114039 120.114368,14.1430121 C120.532206,14.3746203 121.043898,14.4904227 121.64946,14.4904227 C122.194465,14.4904227 122.660741,14.3746203 123.048301,14.1430121 C123.43586,13.9114039 123.753776,13.6115055 124.002056,13.2433078 C124.250336,12.8751102 124.432002,12.4564401 124.547059,11.987285 C124.662116,11.5181299 124.719643,11.0460125 124.719643,10.5709188 Z M133.284133,8.71248798 C133.271691,8.35865864 133.197045,8.05058771 133.060191,7.78826595 C132.923337,7.5259442 132.739831,7.30937948 132.509667,7.13856532 C132.279503,6.96775115 132.01513,6.84269265 131.716539,6.76338608 C131.417949,6.6840795 131.100701,6.6444268 130.764786,6.6444268 C130.503519,6.6444268 130.239146,6.67187867 129.971658,6.72678322 C129.704171,6.78168778 129.458459,6.87319399 129.234516,7.00130462 C129.010573,7.12941524 128.830177,7.29717664 128.693323,7.50459384 C128.556469,7.71201105 128.488043,7.96822845 128.488043,8.27325375 C128.488043,8.529475 128.553359,8.74603971 128.683992,8.92295439 C128.814626,9.09986906 128.97947,9.24932921 129.178531,9.37133933 C129.377591,9.49334945 129.59531,9.59400629 129.831695,9.67331287 C130.068079,9.75261944 130.285798,9.8166738 130.484859,9.86547784 L132.052452,10.2132049 C132.388367,10.262009 132.721166,10.350465 133.05086,10.4785756 C133.380554,10.6066863 133.672919,10.7744476 133.927966,10.9818649 C134.183012,11.1892821 134.3914,11.4454995 134.553137,11.7505248 C134.714874,12.0555501 134.795741,12.4154745 134.795741,12.8303089 C134.795741,13.3427514 134.696212,13.8588419 134.459828,14.2187718 C134.223443,14.5787016 133.921747,14.8715215 133.554729,15.0972403 C133.187711,15.322959 132.774045,15.48462 132.313718,15.5822281 C131.85339,15.6798362 131.39929,15.7286395 130.951404,15.7286395 C129.819248,15.7286395 128.901717,15.4663217 128.198785,14.9416781 C127.495853,14.4170346 127.075965,13.4952665 126.976435,12.3361704 L128.15213,12.3361704 C128.201895,13.1170352 128.491151,13.7057252 129.019905,14.102258 C129.54866,14.4987909 130.204927,14.6970544 130.988728,14.6970544 C131.274877,14.6970544 131.570353,14.6665523 131.875165,14.6055473 C132.179976,14.5445422 132.463011,14.4408352 132.724278,14.294423 C132.985545,14.1480109 133.200154,13.9619482 133.368111,13.7362295 C133.536068,13.5105108 133.620046,13.2329419 133.620046,12.9035146 C133.620046,12.6228913 133.56095,12.3880254 133.442758,12.1989097 C133.324566,12.009794 133.165942,11.8511832 132.966882,11.7230726 C132.767821,11.594962 132.540771,11.4882047 132.285725,11.4027977 C132.030679,11.3173906 131.772526,11.2441856 131.511259,11.1831805 L129.999651,10.8537549 C129.613971,10.7561468 129.2594,10.6432891 128.935927,10.5151785 C128.612454,10.3870679 128.329419,10.2284571 128.086814,10.0393414 C127.844209,9.85022571 127.654482,9.61840996 127.517628,9.34388719 C127.380774,9.06936442 127.312348,8.73079142 127.312348,8.32815803 C127.312348,7.85231857 127.421208,7.4435908 127.63893,7.10196246 C127.856652,6.76033413 128.139687,6.48581548 128.488043,6.27839828 C128.836399,6.07098108 129.225183,5.91847071 129.654407,5.82086262 C130.083632,5.72325452 130.509739,5.67445121 130.932743,5.67445121 C131.417952,5.67445121 131.868942,5.73545535 132.285725,5.85746547 C132.702508,5.97947559 133.06952,6.16858844 133.386773,6.42480969 C133.704025,6.68103094 133.955958,6.99825249 134.142577,7.37648386 C134.329196,7.75471523 134.434945,8.20004548 134.459828,8.71248798 L133.284133,8.71248798 Z" id="rapidBizApps"></path>
                </g>
            </g>
        </g>
    </g>
</svg>