<?xml version="1.0" encoding="UTF-8"?>
<svg width="16px" height="16px" viewBox="0 0 16 16" version="1.1" xmlns="http://www.w3.org/2000/svg" xmlns:xlink="http://www.w3.org/1999/xlink">
    <!-- Generator: Sketch 52.5 (67469) - http://www.bohemiancoding.com/sketch -->
    <title>Calendar-3</title>
    <desc>Created with Sketch.</desc>
    <g id="Symbols" stroke="none" stroke-width="1" fill="none" fill-rule="evenodd">
        <g id="Icons/Calendar" transform="translate(-1.000000, -1.000000)">
            <g id="Calendar-3">
                <rect id="Rectangle_557" x="1" y="1" width="16" height="16"></rect>
                <path d="M3,6 L3,15 L15,15 L15,6 L3,6 Z M14,3 L16,3 C16.2698634,2.9837782 16.5337519,3.08391473 16.7249186,3.2750814 C16.9160853,3.46624806 17.0162218,3.73013663 17,4 L17,16 C17.0162218,16.2698634 16.9160853,16.5337519 16.7249186,16.7249186 C16.5337519,16.9160853 16.2698634,17.0162218 16,17 L2,17 C1.73013663,17.0162218 1.46624806,16.9160853 1.2750814,16.7249186 C1.08391473,16.5337519 0.9837782,16.2698634 1,16 L1,4 C0.9837782,3.73013663 1.08391473,3.46624806 1.2750814,3.2750814 C1.46624806,3.08391473 1.73013663,2.9837782 2,3 L4,3 L4,2 C3.9837782,1.73013663 4.08391473,1.46624806 4.2750814,1.2750814 C4.46624806,1.08391473 4.73013663,0.9837782 5,1 C5.26986337,0.9837782 5.53375194,1.08391473 5.7249186,1.2750814 C5.91608527,1.46624806 6.0162218,1.73013663 6,2 L6,3 L12,3 L12,2 C12,1.44771525 12.4477153,1 13,1 C13.5522847,1 14,1.44771525 14,2 L14,3 Z M13,13 L11,13 L11,11 L13,11 L13,13 Z M10,13 L8,13 L8,11 L10,11 L10,13 Z M13,10 L11,10 L11,8 L13,8 L13,10 Z M10,10 L8,10 L8,8 L10,8 L10,10 Z M7,13 L5,13 L5,11 L7,11 L7,13 Z" id="Path_149" fill="#A5A4BF"></path>
            </g>
        </g>
    </g>
</svg>