<?xml version="1.0" encoding="UTF-8"?>
<svg width="16px" height="16px" viewBox="0 0 16 16" version="1.1" xmlns="http://www.w3.org/2000/svg" xmlns:xlink="http://www.w3.org/1999/xlink">
    <!-- Generator: Sketch 52.5 (67469) - http://www.bohemiancoding.com/sketch -->
    <title>settings-gear-64</title>
    <desc>Created with Sketch.</desc>
    <g id="Symbols" stroke="none" stroke-width="1" fill="none" fill-rule="evenodd">
        <g id="Icons/Settings" fill="#A5A4BF" fill-rule="nonzero">
            <g id="settings-gear-64">
                <path d="M13.3,5.2 L14.4,3.1 L13,1.7 L10.9,2.8 C10.5577451,2.60725652 10.1861182,2.47211945 9.8,2.4 L9,0 L7,0 L6.2,2.3 C5.85080848,2.38964118 5.51468433,2.52409084 5.2,2.7 L3.1,1.6 L1.6,3.1 L2.7,5.2 C2.52409084,5.51468433 2.38964118,5.85080848 2.3,6.2 L0,7 L0,9 L2.3,9.8 C2.4,10.2 2.6,10.5 2.7,10.9 L1.6,13 L3,14.4 L5.1,13.3 C5.44225489,13.4927435 5.81388183,13.6278805 6.2,13.7 L7,16 L9,16 L9.8,13.7 C10.2,13.6 10.5,13.4 10.9,13.3 L13,14.4 L14.4,13 L13.3,10.9 C13.4927435,10.5577451 13.6278805,10.1861182 13.7,9.8 L16,9 L16,7 L13.7,6.2 C13.6103588,5.85080848 13.4759092,5.51468433 13.3,5.2 Z M8,11 C7.19990366,11.0148052 6.42820958,10.7034912 5.86235919,10.1376408 C5.29650879,9.57179042 4.9851948,8.80009634 5,8 C4.9851948,7.19990366 5.29650879,6.42820958 5.86235919,5.86235919 C6.42820958,5.29650879 7.19990366,4.9851948 8,5 C8.80009634,4.9851948 9.57179042,5.29650879 10.1376408,5.86235919 C10.7034912,6.42820958 11.0148052,7.19990366 11,8 C11.0148052,8.80009634 10.7034912,9.57179042 10.1376408,10.1376408 C9.57179042,10.7034912 8.80009634,11.0148052 8,11 Z" id="Path_108"></path>
            </g>
        </g>
    </g>
</svg>