<?xml version="1.0" encoding="UTF-8"?>
<svg width="28px" height="28px" viewBox="0 0 28 28" version="1.1" xmlns="http://www.w3.org/2000/svg" xmlns:xlink="http://www.w3.org/1999/xlink">
    <!-- Generator: Sketch 53.2 (72643) - https://sketchapp.com -->
    <title>Shift Logs</title>
    <desc>Created with Sketch.</desc>
    <g id="Shift-Logs" stroke="none" stroke-width="1" fill="none" fill-rule="evenodd">
        <g id="Group-2" transform="translate(0.000000, 4.000000)">
            <g id="Group-3">
                <g id="Group-8" stroke="#A6A3C1">
                    <g id="Group-7">
                        <g id="Group-6">
                            <path d="" id="Path-4" stroke-width="0.5"></path>
                            <path d="M12.9707847,7.46487423 L12.9707847,8.44285709 C13.1352856,8.85347918 13.1984785,9.18851275 13.1603633,9.44795778 C13.1222481,9.70740282 12.9611211,9.98962838 12.6769823,10.2946345 C12.5231474,10.8895822 12.3657556,11.3276756 12.204807,11.6089147 C12.0438584,11.8901538 11.7493822,12.2884287 11.3213784,12.8037393 L11.3213784,15.0594072 C12.238832,15.790528 12.9348092,16.2799084 13.4093102,16.5275486 C14.6117909,17.1551186 15.7183489,17.4323946 16.3897371,18.0010669 C17.4585217,18.9063378 17.9089939,19.7978845 17.7411539,20.675707 L8.86783277,20.675707" id="Path-5" stroke-width="0.710526316"></path>
                            <path d="M4.2927514,7.46487423 L4.2927514,8.44285709 C4.45725234,8.85347918 4.52044522,9.18851275 4.48233004,9.44795778 C4.44421486,9.70740282 4.28308784,9.98962838 3.99894899,10.2946345 C3.84511411,10.8895822 3.68772237,11.3276756 3.52677377,11.6089147 C3.36582516,11.8901538 3.07134896,12.2884287 2.64334517,12.8037393 L2.64334517,15.0594072 C3.5607987,15.790528 4.25677594,16.2799084 4.73127687,16.5275486 C5.93375758,17.1551186 7.04031561,17.4323946 7.71170382,18.0010669 C8.78048842,18.9063378 9.23096067,19.7978845 9.06312058,20.675707 L0.189799499,20.675707" id="Path-5" stroke-width="0.710526316" transform="translate(4.643545, 14.070291) scale(-1, 1) translate(-4.643545, -14.070291) "></path>
                            <path d="M9.09729056,7.43700195 C10.5034195,7.474165 11.5452573,7.474165 12.222804,7.43700195 C12.9003506,7.39983891 13.5428136,7.33549861 14.1501929,7.24398106 L14.1501929,6.13847428 C14.0059726,5.95518664 13.8875214,5.83180304 13.7948392,5.76832346 C13.7021571,5.70484389 13.5444035,5.5858443 13.3215783,5.41132468 C13.268801,4.51326741 12.9943297,3.66765966 12.4981642,2.87450143 C12.0019987,2.0813432 11.1724276,1.68476409 10.0094509,1.68476409" id="Path-6" stroke-width="0.710526316"></path>
                            <path d="M3.74243108,7.43700195 C5.43455466,7.474165 6.61938978,7.474165 7.29693642,7.43700195 C7.97448306,7.39983891 8.61694603,7.33549861 9.22432532,7.24398106 L9.22432532,6.13847428 C9.08010504,5.95518664 8.96165383,5.83180304 8.86897168,5.76832346 C8.77628954,5.70484389 8.61853589,5.5858443 8.39571074,5.41132468 C8.31776686,4.38364295 8.04329549,3.5380352 7.57229662,2.87450143 C7.10129775,2.21096766 6.30861176,1.81438855 5.19423865,1.68476409" id="Path-6" stroke-width="0.710526316" transform="translate(6.483378, 4.574819) scale(-1, 1) translate(-6.483378, -4.574819) "></path>
                            <path d="M8.00653514,4.46576354 L8.00653514,0.879603972 C8.00653514,0.487191123 8.3246486,0.169077656 8.71706145,0.169077656 L9.29892462,0.169077656 C9.69133747,0.169077656 10.0094509,0.487191123 10.0094509,0.879603972 L10.0094509,4.57481916" id="Path-7" stroke-width="0.710526316"></path>
                        </g>
                    </g>
                </g>
                <g id="icons8-comments" transform="translate(16.000000, 0.000000)" fill="#A6A3C1" fill-rule="nonzero">
                    <path d="M1.84615385,0 C0.832932923,0 0,0.860220397 0,1.91077182 L0,6.68770137 C0,7.73638692 0.832932923,8.59847319 1.84615385,8.59847319 L2.91346154,8.59847319 L3.72115385,10.6883799 C3.78786046,10.8749787 3.96093738,11 4.15384615,11 C4.34675492,11 4.51983185,10.8749787 4.58653846,10.6883799 L5.39423077,8.59847319 L10.1538462,8.59847319 C11.1670675,8.59847319 12,7.73638692 12,6.68770137 L12,1.91077182 C12,0.860220397 11.1670675,0 10.1538462,0 L1.84615385,0 Z M1.84615385,0.95538591 L10.1538462,0.95538591 C10.6694714,0.95538591 11.0769231,1.37709946 11.0769231,1.91077182 L11.0769231,6.68770137 C11.0769231,7.21950786 10.6676682,7.64308728 10.1538462,7.64308728 L5.07692308,7.64308728 C4.88762031,7.64122141 4.71454338,7.75877878 4.64423077,7.94164538 L4.15384615,9.21051729 L3.66346154,7.94164538 C3.59314892,7.75877878 3.420072,7.64122141 3.23076923,7.64308728 L1.84615385,7.64308728 C1.33233185,7.64308728 0.923076923,7.21950786 0.923076923,6.68770137 L0.923076923,1.91077182 C0.923076923,1.37709946 1.33052908,0.95538591 1.84615385,0.95538591 Z" id="Shape"></path>
                </g>
            </g>
        </g>
    </g>
</svg>