<?xml version="1.0" encoding="UTF-8"?>
<svg width="24px" height="24px" viewBox="0 0 24 24" version="1.1" xmlns="http://www.w3.org/2000/svg" xmlns:xlink="http://www.w3.org/1999/xlink">
    <!-- Generator: Sketch 52.5 (67469) - http://www.bohemiancoding.com/sketch -->
    <title>rBA 1</title>
    <desc>Created with Sketch.</desc>
    <g id="Symbols" stroke="none" stroke-width="1" fill="none" fill-rule="evenodd">
        <g id="Organisms/Side-Menu-Mini" transform="translate(-21.000000, -819.000000)" fill="#C1C1C1" fill-rule="nonzero">
            <g id="rBA-1" transform="translate(21.000000, 819.000000)">
                <path d="M12,0 C5.38134206,0 0,5.38134206 0,12 C0,18.6186579 5.38134206,24 12,24 C18.6186579,24 24,18.6186579 24,12 C24,5.38134206 18.6186579,0 12,0 Z M6.18657938,7.91489362 L8.56301146,5.91162029 C8.93617021,6.28477905 9.3289689,6.63829787 9.70212766,7.01145663 C9.34860884,7.30605565 8.91653028,7.75777414 8.50409165,8.36661211 C8.20949264,8.79869067 8.01309329,9.23076923 7.87561375,9.56464812 L6.18657938,7.91489362 Z M17.5188216,7.79705401 C17.4206219,7.75777414 16.9492635,7.5613748 16.2815057,7.50245499 C16.1047463,7.48281506 15.8494272,7.48281506 15.5548282,7.52209493 C14.2978723,7.6792144 13.2962357,8.1898527 12.7070376,9.03436989 C12.1178396,9.87888707 12.0785597,10.7234043 12.0392799,12.1571195 C11.9803601,14.5335516 11.9410802,16.5564648 11.9410802,18.0883797 C10.6644845,18.0883797 9.38788871,18.0883797 8.11129296,18.0883797 C8.11129296,16.1243863 8.11129296,14.1603928 8.11129296,12.1963993 C8.11129296,10.7823241 8.58265139,9.40752864 9.50572831,8.32733224 C9.56464812,8.26841244 9.62356792,8.20949264 9.68248773,8.1309329 C11.5679214,6.14729951 14.710311,5.36170213 17.8134206,6.28477905 C17.7545008,6.65793781 17.5973813,7.44353519 17.5188216,7.79705401 Z" id="Shape"></path>
            </g>
        </g>
    </g>
</svg>