<?xml version="1.0" encoding="UTF-8"?>
<svg width="18px" height="16px" viewBox="0 0 18 16" version="1.1" xmlns="http://www.w3.org/2000/svg" xmlns:xlink="http://www.w3.org/1999/xlink">
    <!-- Generator: Sketch 52.5 (67469) - http://www.bohemiancoding.com/sketch -->
    <title>Group 2</title>
    <desc>Created with Sketch.</desc>
    <g id="Symbols" stroke="none" stroke-width="1" fill="none" fill-rule="evenodd">
        <g id="Icons/Tasks" fill="#A5A4BF">
            <g id="Group-2">
                <path d="M6.00132833,1.00177149 C5.98891776,0.731820424 6.06392416,0.467736063 6.207325,0.276493397 C6.35072585,0.0852507319 6.54874609,-0.0147795326 6.75116541,0.00177148986 L17.2488846,0.00177148986 C17.4512381,-0.0144503105 17.6491116,0.0856862236 17.7924554,0.276852886 C17.9357993,0.468019548 18.0108854,0.731908119 17.9987217,1.00177149 L17.9987217,3.00177149 C18.0108854,3.27163486 17.9357993,3.53552343 17.7924554,3.72669009 C17.6491116,3.91785676 17.4512381,4.01799329 17.2488846,4.00177149 L6.75116541,4.00177149 C6.54874609,4.01832251 6.35072585,3.91829225 6.207325,3.72704958 C6.06392416,3.53580692 5.98891776,3.27172256 6.00132833,3.00177149 L6.00132833,1.00177149 Z" id="Union_8-path"></path>
                <path d="M6.00132833,7.00177149 C5.98891776,6.73182042 6.06392416,6.46773606 6.207325,6.2764934 C6.35072585,6.08525073 6.54874609,5.98522047 6.75116541,6.00177149 L17.2488846,6.00177149 C17.4512381,5.98554969 17.6491116,6.08568622 17.7924554,6.27685289 C17.9357993,6.46801955 18.0108854,6.73190812 17.9987217,7.00177149 L17.9987217,9.00177149 C18.0108854,9.27163486 17.9357993,9.53552343 17.7924554,9.72669009 C17.6491116,9.91785676 17.4512381,10.0179933 17.2488846,10.0017715 L6.75116541,10.0017715 C6.54874609,10.0183225 6.35072585,9.91829225 6.207325,9.72704958 C6.06392416,9.53580692 5.98891776,9.27172256 6.00132833,9.00177149 L6.00132833,7.00177149 Z" id="Union_8-path-Copy"></path>
                <path d="M6.00132833,13.0017715 C5.98891776,12.7318204 6.06392416,12.4677361 6.207325,12.2764934 C6.35072585,12.0852507 6.54874609,11.9852205 6.75116541,12.0017715 L17.2488846,12.0017715 C17.4512381,11.9855497 17.6491116,12.0856862 17.7924554,12.2768529 C17.9357993,12.4680195 18.0108854,12.7319081 17.9987217,13.0017715 L17.9987217,15.0017715 C18.0108854,15.2716349 17.9357993,15.5355234 17.7924554,15.7266901 C17.6491116,15.9178568 17.4512381,16.0179933 17.2488846,16.0017715 L6.75116541,16.0017715 C6.54874609,16.0183225 6.35072585,15.9182922 6.207325,15.7270496 C6.06392416,15.5358069 5.98891776,15.2717226 6.00132833,15.0017715 L6.00132833,13.0017715 Z" id="Union_8-path-Copy-2"></path>
                <circle id="Oval" cx="2" cy="2" r="2"></circle>
                <circle id="Oval-Copy" cx="2" cy="8" r="2"></circle>
                <circle id="Oval-Copy-2" cx="2" cy="14" r="2"></circle>
            </g>
        </g>
    </g>
</svg>